<svg width="37" height="22" viewBox="0 0 37 22" fill="none" xmlns="http://www.w3.org/2000/svg">
<path fill-rule="evenodd" clip-rule="evenodd" d="M7.54676 14.2316C8.8127 15.5293 10.7463 15.9365 12.4284 15.1758C16.7114 13.0208 15.4637 6.98961 18.5024 3.57869C19.297 2.68639 20.2265 1.9407 21.2466 1.36656C23.6355 0.0196424 26.5272 -0.387566 29.3495 0.467123C31.0837 0.990676 32.5881 1.93486 33.7933 3.15201C34.552 3.9172 35.1936 4.78979 35.6965 5.74293C36.1995 6.69159 36.5636 7.72079 36.7804 8.79475C36.9253 9.5179 37.0004 10.2513 37 11.0028C37.0004 11.7542 36.9253 12.4966 36.7804 13.2197C36.5636 14.2937 36.1995 15.3229 35.6965 16.2715C35.1936 17.2247 34.552 18.0973 33.7933 18.8625C32.5881 20.0796 31.0837 21.0238 29.3495 21.5473C26.2174 22.4958 23.0018 21.8892 20.4784 20.1713C20.8658 19.8168 21.844 18.6901 22.471 17.1872C23.098 15.6843 23.3271 14.7054 23.3867 14.3828C23.6369 14.6141 23.917 14.8192 24.2251 14.9917C25.82 15.8782 27.8293 15.662 29.2021 14.4592C30.7829 13.0501 31.1929 10.69 30.2123 8.83502C29.1696 6.84643 26.6555 5.8975 24.5632 6.85268C21.5668 8.39906 21.5729 11.8855 20.6293 14.6994C20.1355 16.1722 19.0056 17.804 18.5024 18.4358C17.7068 19.3303 16.7757 20.0778 15.7537 20.653C13.3649 21.9999 10.4732 22.4071 7.65081 21.5524C5.91665 21.0289 4.41227 20.0847 3.20703 18.8675C2.44833 18.1024 1.80669 17.2253 1.30378 16.2766C0.800877 15.328 0.436702 14.2988 0.219932 13.2248C0.0750538 12.5036 -6.75797e-06 11.7535 4.56354e-10 11.0028C-6.75797e-06 10.252 0.0750538 9.51083 0.219932 8.78965C0.436702 7.7157 0.800877 6.68649 1.30378 5.73783C1.80669 4.78917 2.44833 3.91211 3.20703 3.14692C4.41227 1.92977 5.91665 0.985583 7.65081 0.462031C10.8706 -0.513022 13.989 0.0930902 16.5427 1.92288C16.2918 2.24808 15.9273 2.40924 15.2811 3.57869C14.6451 4.72961 13.853 7.04111 13.7135 7.72043C13.3353 7.34731 12.9001 7.07599 12.4284 6.83864C10.2501 5.85352 7.72545 6.91328 6.7057 8.98207C5.88232 10.6853 6.19541 12.8779 7.54676 14.2316Z" fill="#333333"/>
</svg>
