<!-- icon666.com - MILLIONS vector ICONS FREE --><svg version="1.1" id="Capa_1" xmlns="http://www.w3.org/2000/svg" xmlns:xlink="http://www.w3.org/1999/xlink" x="0px" y="0px" viewBox="0 0 526.959 526.96" style="enable-background:new 0 0 526.959 526.96;" xml:space="preserve"><g><g><path d="M257.522,371.06V343.94c-7.44-0.038-14.554-0.191-21.42-0.411v27.272c6.101,0.162,12.364,0.258,18.905,0.258 C255.849,371.06,256.681,371.06,257.522,371.06z"></path><path d="M226.54,343.204c-5.537-0.239-10.873-0.555-16.008-0.908v27.319c5.125,0.335,10.471,0.603,16.008,0.832V343.204z"></path><path d="M200.97,341.54c-5.575-0.459-10.939-0.966-15.988-1.511v27.358c5.058,0.563,10.394,1.062,15.988,1.521V341.54z"></path><path d="M286.583,343.634c-6.302,0.183-12.795,0.297-19.498,0.335v26.947c6.713-0.105,13.234-0.277,19.498-0.545V343.634z"></path><path d="M236.103,434.507c6.101,0.162,12.364,0.258,18.905,0.258c0.842,0,1.673,0,2.515,0v-20.646c-0.861,0-1.731,0-2.582,0 c-6.521,0-12.775-0.096-18.848-0.248v20.636H236.103z"></path><path d="M286.583,379.952c-6.264,0.249-12.776,0.421-19.498,0.526v23.944c6.713-0.105,13.234-0.277,19.498-0.545V379.952z"></path><path d="M200.97,378.547c-5.594-0.439-10.92-0.938-15.988-1.473v23.82c5.058,0.564,10.394,1.062,15.988,1.521V378.547z"></path><path d="M286.583,413.46c-6.264,0.248-12.776,0.42-19.498,0.525v20.646c6.713-0.105,13.234-0.277,19.498-0.545V413.46z"></path><path d="M226.54,413.536c-5.537-0.21-10.873-0.487-16.008-0.804v20.598c5.125,0.335,10.471,0.603,16.008,0.832V413.536z"></path><path d="M200.97,412.054c-5.594-0.439-10.92-0.937-15.988-1.473v20.521c5.058,0.564,10.394,1.062,15.988,1.521V412.054z"></path><path d="M354.266,279.737v49.353c25.273-3.079,43.777-6.847,54.994-9.524l-0.058-39.828H354.266z"></path><path d="M378.249,369.94v23.696c19.613-3.873,29.97-7.315,30.199-7.383c0.296-0.104,0.602-0.076,0.918-0.114l-0.039-23.648 C405.11,363.792,394.706,366.747,378.249,369.94z"></path><path d="M368.686,371.681c-4.456,0.766-9.294,1.521-14.42,2.257v23.754c5.116-0.746,10.003-1.521,14.42-2.295V371.681z"></path><path d="M315.643,411.729c-6.215,0.507-12.698,0.947-19.497,1.311v20.607c6.799-0.373,13.282-0.832,19.497-1.349V411.729z"></path><path d="M147.946,371.72c-13.636-2.573-23.581-5.164-30.007-7.086l0.029,23.485c5.594,1.74,15.587,4.514,29.979,7.286V371.72 L147.946,371.72z"></path><path d="M157.508,453.135c0,3.175,6.933,7.86,17.911,9.858V439.68c-6.436-0.812-12.432-1.673-17.911-2.572V453.135z"></path><path d="M344.704,339.886c-6.139,0.641-12.68,1.215-19.498,1.74v26.105c6.914-0.669,13.407-1.415,19.498-2.199V339.886z"></path><path d="M236.103,404.299c6.101,0.162,12.364,0.258,18.905,0.258c0.842,0,1.673,0,2.515,0v-23.944c-0.861,0-1.731,0-2.582,0 c-6.521,0-12.775-0.096-18.848-0.248v23.935H236.103z"></path><path d="M315.643,342.314c-6.225,0.401-12.766,0.718-19.497,0.995v26.621c6.799-0.372,13.282-0.831,19.497-1.348V342.314z"></path><path d="M175.419,375.965c-6.436-0.803-12.432-1.673-17.911-2.572v23.725c5.431,0.918,11.484,1.798,17.911,2.62V375.965z"></path><path d="M175.419,338.882c-6.417-0.813-12.451-1.674-17.911-2.554v27.292c5.431,0.918,11.484,1.798,17.911,2.62V338.882z"></path><path d="M226.54,380.029c-5.537-0.22-10.873-0.488-16.008-0.804v23.897c5.125,0.334,10.471,0.602,16.008,0.831V380.029z"></path><path d="M315.643,378.222c-6.215,0.507-12.698,0.947-19.497,1.311v23.906c6.799-0.373,13.282-0.832,19.497-1.349V378.222z"></path><path d="M325.206,464.629l17.413-0.698c0.728-0.029,1.387-0.124,2.085-0.182v-24.796c-6.11,0.774-12.574,1.501-19.498,2.161 V464.629L325.206,464.629z"></path><path d="M354.266,462.267c8.932-2.267,14.42-6.312,14.42-9.132v-17.729c-4.456,0.766-9.294,1.521-14.42,2.257V462.267z"></path><path d="M236.103,465.996l27.521,1.08l22.96-0.918v-22.5c-9.219,0.373-18.801,0.621-28.985,0.659c-0.889,0-1.778,0-2.648,0 c-6.522,0-12.776-0.095-18.848-0.248V465.996L236.103,465.996z"></path><path d="M296.146,465.785l19.497-0.783v-23.065c-6.215,0.507-12.698,0.947-19.497,1.311V465.785z"></path><path d="M368.686,405.188c-4.456,0.765-9.294,1.521-14.42,2.256v20.464c5.116-0.745,10.003-1.521,14.42-2.295V405.188z"></path><path d="M408.859,57.429c-0.039-24.222-19.575-46.062-43.663-48.769l-59.02-6.646c-24.078-2.696-63.112-2.687-87.2,0.039 l-57.997,6.569c-24.069,2.725-43.557,24.576-43.519,48.807l0.325,212.746h291.397L408.859,57.429z M340.257,30.97 c0-2.553,2.075-4.619,4.609-4.619c2.562,0,4.608,2.065,4.608,4.619v11.8c0,2.553-2.056,4.609-4.608,4.609 c-2.544,0-4.609-2.065-4.609-4.609V30.97z M239.277,34.364h58.494c2.64,0,4.781,2.142,4.781,4.781s-2.142,4.781-4.781,4.781 h-58.494c-2.639,0-4.781-2.142-4.781-4.781C234.496,36.497,236.628,34.364,239.277,34.364z M395.098,260.326H130.054V81.192 h265.044V260.326z"></path><path d="M378.249,423.835c19.613-3.873,29.97-7.315,30.199-7.382c0.315-0.105,0.641-0.087,0.966-0.125l-0.029-20.349 c-4.188,1.291-14.602,4.255-31.136,7.459V423.835L378.249,423.835z"></path><path d="M210.532,464.992l16.008,0.631v-21.869c-5.537-0.211-10.873-0.488-16.008-0.804V464.992z"></path><path d="M224.876,525.207c24.088,2.448,63.161,2.314,87.258-0.287l53.808-5.805c24.098-2.601,43.596-24.355,43.558-48.577 l-0.067-44.36c-4.15,1.291-14.583,4.265-31.184,7.478v19.479c0,10.681-15.146,19.325-35.237,20.119l-79.397,3.146l-80.44-3.146 c-20.091-0.794-35.228-9.438-35.228-20.119v-17.7c-13.56-2.554-23.476-5.136-29.912-7.048l0.067,42.142 c0.038,24.222,19.613,45.843,43.701,48.291L224.876,525.207z"></path><path d="M378.249,335.496v24.624c19.613-3.873,29.97-7.315,30.199-7.392c0.276-0.096,0.583-0.067,0.87-0.115l-0.039-23.074 C401.552,331.327,391.139,333.44,378.249,335.496z"></path><path d="M147.946,334.665c-13.78-2.563-23.696-5.098-30.074-6.962l0.048,26.89c5.584,1.74,15.596,4.514,30.026,7.296V334.665 L147.946,334.665z"></path><path d="M184.981,463.988l15.988,0.621v-22.348c-5.594-0.439-10.92-0.937-15.988-1.482V463.988z"></path><path d="M368.686,336.94c-4.542,0.641-9.361,1.271-14.42,1.864v25.379c5.116-0.745,10.003-1.52,14.42-2.295V336.94z"></path><path d="M344.704,375.238c-6.11,0.774-12.574,1.501-19.498,2.161v23.839c6.914-0.669,13.407-1.415,19.498-2.199V375.238z"></path><path d="M175.419,279.737h-57.604l0.057,37.801c7.65,2.372,26.813,7.593,57.557,11.618v-49.419H175.419z"></path><path d="M344.704,279.737H184.981v50.586c21.047,2.381,46.741,4.112,77.227,4.112h2.677c30.964-0.105,57.624-1.855,79.818-4.236 V279.737z M264.054,326.307c-10.615,0-19.23-8.597-19.23-19.229c0-10.614,8.606-19.221,19.23-19.221 c10.615,0,19.23,8.597,19.23,19.221C283.284,317.71,274.677,326.307,264.054,326.307z"></path><path d="M147.946,405.227c-13.598-2.554-23.524-5.145-29.959-7.067l0.029,20.187c5.604,1.74,15.577,4.504,29.931,7.268V405.227z"></path><path d="M344.704,408.745c-6.11,0.774-12.574,1.502-19.498,2.161v20.54c6.914-0.669,13.407-1.415,19.498-2.199V408.745z"></path><path d="M175.419,409.472c-6.436-0.803-12.432-1.673-17.911-2.572v20.436c5.431,0.918,11.484,1.798,17.911,2.63V409.472z"></path></g></g></svg>